<mxfile host="Electron" agent="Mozilla/5.0 (X11; Linux x86_64) AppleWebKit/537.36 (KHTML, like Gecko) draw.io/26.0.16 Chrome/132.0.6834.196 Electron/34.2.0 Safari/537.36" version="26.0.16">
  <diagram name="Página-1" id="Y4v-zRmJQ9ysSYKRB13J">
    <mxGraphModel dx="-110" dy="685" grid="1" gridSize="10" guides="1" tooltips="1" connect="1" arrows="1" fold="1" page="1" pageScale="1" pageWidth="827" pageHeight="1169" math="0" shadow="0">
      <root>
        <mxCell id="0" />
        <mxCell id="1" parent="0" />
        <mxCell id="ezMyJnMZ9ZcVQrx3dU-W-1" style="rounded=0;orthogonalLoop=1;jettySize=auto;html=1;fontFamily=Helvetica;fontSize=12;fontColor=default;endArrow=none;endFill=0;edgeStyle=orthogonalEdgeStyle;entryX=0;entryY=0.5;entryDx=0;entryDy=0;exitX=0.5;exitY=0;exitDx=0;exitDy=0;" parent="1" source="ezMyJnMZ9ZcVQrx3dU-W-3" target="ezMyJnMZ9ZcVQrx3dU-W-9" edge="1">
          <mxGeometry relative="1" as="geometry" />
        </mxCell>
        <mxCell id="ezMyJnMZ9ZcVQrx3dU-W-2" value="N" style="edgeLabel;html=1;align=center;verticalAlign=middle;resizable=0;points=[];rounded=0;strokeColor=default;spacingBottom=0;fontFamily=Helvetica;fontSize=12;fontColor=default;fillColor=none;" parent="ezMyJnMZ9ZcVQrx3dU-W-1" vertex="1" connectable="0">
          <mxGeometry x="-0.1733" y="3" relative="1" as="geometry">
            <mxPoint x="3" y="1" as="offset" />
          </mxGeometry>
        </mxCell>
        <mxCell id="ezMyJnMZ9ZcVQrx3dU-W-3" value="Requisita" style="rhombus;whiteSpace=wrap;html=1;" parent="1" vertex="1">
          <mxGeometry x="1670" y="760" width="80" height="50" as="geometry" />
        </mxCell>
        <mxCell id="ezMyJnMZ9ZcVQrx3dU-W-4" style="edgeStyle=orthogonalEdgeStyle;rounded=0;orthogonalLoop=1;jettySize=auto;html=1;endArrow=none;endFill=0;exitX=0.5;exitY=0;exitDx=0;exitDy=0;entryX=0.5;entryY=1;entryDx=0;entryDy=0;" parent="1" source="ezMyJnMZ9ZcVQrx3dU-W-42" target="ezMyJnMZ9ZcVQrx3dU-W-3" edge="1">
          <mxGeometry relative="1" as="geometry" />
        </mxCell>
        <mxCell id="ezMyJnMZ9ZcVQrx3dU-W-5" value="1" style="edgeLabel;html=1;align=center;verticalAlign=middle;resizable=0;points=[];rounded=0;strokeColor=default;spacingBottom=0;fontFamily=Helvetica;fontSize=12;fontColor=default;fillColor=none;" parent="ezMyJnMZ9ZcVQrx3dU-W-4" vertex="1" connectable="0">
          <mxGeometry y="1" relative="1" as="geometry">
            <mxPoint as="offset" />
          </mxGeometry>
        </mxCell>
        <mxCell id="ezMyJnMZ9ZcVQrx3dU-W-6" value="M" style="edgeStyle=orthogonalEdgeStyle;rounded=0;orthogonalLoop=1;jettySize=auto;html=1;entryX=0;entryY=0.5;entryDx=0;entryDy=0;fontFamily=Helvetica;fontSize=12;fontColor=default;endArrow=none;endFill=0;" parent="1" source="ezMyJnMZ9ZcVQrx3dU-W-9" target="ezMyJnMZ9ZcVQrx3dU-W-26" edge="1">
          <mxGeometry relative="1" as="geometry" />
        </mxCell>
        <mxCell id="ezMyJnMZ9ZcVQrx3dU-W-7" style="edgeStyle=orthogonalEdgeStyle;rounded=0;orthogonalLoop=1;jettySize=auto;html=1;fontFamily=Helvetica;fontSize=12;fontColor=default;endArrow=none;endFill=0;" parent="1" source="ezMyJnMZ9ZcVQrx3dU-W-9" target="ezMyJnMZ9ZcVQrx3dU-W-28" edge="1">
          <mxGeometry relative="1" as="geometry" />
        </mxCell>
        <mxCell id="ezMyJnMZ9ZcVQrx3dU-W-8" value="1" style="edgeLabel;html=1;align=center;verticalAlign=middle;resizable=0;points=[];rounded=0;strokeColor=default;spacingBottom=0;fontFamily=Helvetica;fontSize=12;fontColor=default;fillColor=none;" parent="ezMyJnMZ9ZcVQrx3dU-W-7" vertex="1" connectable="0">
          <mxGeometry x="0.1667" y="-2" relative="1" as="geometry">
            <mxPoint as="offset" />
          </mxGeometry>
        </mxCell>
        <mxCell id="ezMyJnMZ9ZcVQrx3dU-W-9" value="Venda" style="rounded=0;whiteSpace=wrap;html=1;" parent="1" vertex="1">
          <mxGeometry x="1970" y="720" width="100" height="40" as="geometry" />
        </mxCell>
        <mxCell id="ezMyJnMZ9ZcVQrx3dU-W-10" style="edgeStyle=orthogonalEdgeStyle;rounded=0;orthogonalLoop=1;jettySize=auto;html=1;entryX=0;entryY=0.5;entryDx=0;entryDy=0;endArrow=none;endFill=0;exitX=0.5;exitY=0;exitDx=0;exitDy=0;" parent="1" source="ezMyJnMZ9ZcVQrx3dU-W-15" target="ezMyJnMZ9ZcVQrx3dU-W-18" edge="1">
          <mxGeometry relative="1" as="geometry">
            <Array as="points">
              <mxPoint x="2280" y="690" />
              <mxPoint x="2385" y="690" />
            </Array>
          </mxGeometry>
        </mxCell>
        <mxCell id="ezMyJnMZ9ZcVQrx3dU-W-11" style="edgeStyle=orthogonalEdgeStyle;rounded=0;orthogonalLoop=1;jettySize=auto;html=1;entryX=0;entryY=0.5;entryDx=0;entryDy=0;endArrow=none;endFill=0;" parent="1" source="ezMyJnMZ9ZcVQrx3dU-W-15" target="ezMyJnMZ9ZcVQrx3dU-W-55" edge="1">
          <mxGeometry relative="1" as="geometry">
            <Array as="points">
              <mxPoint x="2335" y="738" />
              <mxPoint x="2335" y="810" />
            </Array>
          </mxGeometry>
        </mxCell>
        <mxCell id="ezMyJnMZ9ZcVQrx3dU-W-12" value="1" style="edgeLabel;html=1;align=center;verticalAlign=middle;resizable=0;points=[];" parent="ezMyJnMZ9ZcVQrx3dU-W-11" vertex="1" connectable="0">
          <mxGeometry x="0.0949" y="-1" relative="1" as="geometry">
            <mxPoint as="offset" />
          </mxGeometry>
        </mxCell>
        <mxCell id="ezMyJnMZ9ZcVQrx3dU-W-13" style="edgeStyle=orthogonalEdgeStyle;rounded=0;orthogonalLoop=1;jettySize=auto;html=1;entryX=0.5;entryY=0;entryDx=0;entryDy=0;endArrow=none;endFill=0;" parent="1" source="ezMyJnMZ9ZcVQrx3dU-W-15" target="ezMyJnMZ9ZcVQrx3dU-W-73" edge="1">
          <mxGeometry relative="1" as="geometry">
            <Array as="points">
              <mxPoint x="2300" y="813" />
              <mxPoint x="2330" y="813" />
            </Array>
          </mxGeometry>
        </mxCell>
        <mxCell id="ezMyJnMZ9ZcVQrx3dU-W-14" value="N" style="edgeLabel;html=1;align=center;verticalAlign=middle;resizable=0;points=[];" parent="ezMyJnMZ9ZcVQrx3dU-W-13" vertex="1" connectable="0">
          <mxGeometry x="0.5646" y="-1" relative="1" as="geometry">
            <mxPoint as="offset" />
          </mxGeometry>
        </mxCell>
        <mxCell id="ezMyJnMZ9ZcVQrx3dU-W-15" value="Produto" style="rounded=0;whiteSpace=wrap;html=1;" parent="1" vertex="1">
          <mxGeometry x="2230" y="717.5" width="100" height="40" as="geometry" />
        </mxCell>
        <mxCell id="ezMyJnMZ9ZcVQrx3dU-W-16" value="Nome" style="html=1;verticalAlign=middle;startArrow=oval;startFill=0;endArrow=none;startSize=8;rounded=0;endFill=0;edgeStyle=orthogonalEdgeStyle;spacingLeft=0;spacingRight=0;spacingBottom=0;spacing=0;spacingTop=0;labelPosition=left;verticalLabelPosition=middle;align=right;" parent="1" edge="1">
          <mxGeometry x="-1" y="-10" width="60" relative="1" as="geometry">
            <mxPoint x="2220" y="830" as="sourcePoint" />
            <mxPoint x="2260" y="757.5" as="targetPoint" />
            <mxPoint x="-10" y="-10" as="offset" />
            <Array as="points">
              <mxPoint x="2260" y="830" />
            </Array>
          </mxGeometry>
        </mxCell>
        <mxCell id="ezMyJnMZ9ZcVQrx3dU-W-17" value="Preço" style="html=1;verticalAlign=middle;startArrow=oval;startFill=0;endArrow=none;startSize=8;rounded=0;endFill=0;edgeStyle=orthogonalEdgeStyle;spacingLeft=0;spacingRight=0;spacingBottom=0;spacing=0;spacingTop=0;labelPosition=left;verticalLabelPosition=middle;align=right;entryX=0.5;entryY=0;entryDx=0;entryDy=0;" parent="1" target="ezMyJnMZ9ZcVQrx3dU-W-20" edge="1">
          <mxGeometry x="-1" y="-10" width="60" relative="1" as="geometry">
            <mxPoint x="2330" y="480" as="sourcePoint" />
            <mxPoint x="2375" y="480" as="targetPoint" />
            <mxPoint x="-10" y="-10" as="offset" />
            <Array as="points">
              <mxPoint x="2335" y="480" />
              <mxPoint x="2385" y="480" />
            </Array>
          </mxGeometry>
        </mxCell>
        <mxCell id="ezMyJnMZ9ZcVQrx3dU-W-18" value="" style="triangle;whiteSpace=wrap;html=1;rotation=-90;" parent="1" vertex="1">
          <mxGeometry x="2370" y="630" width="30" height="40" as="geometry" />
        </mxCell>
        <mxCell id="ezMyJnMZ9ZcVQrx3dU-W-19" style="edgeStyle=orthogonalEdgeStyle;rounded=0;orthogonalLoop=1;jettySize=auto;html=1;entryX=1;entryY=0.5;entryDx=0;entryDy=0;endArrow=none;endFill=0;shape=link;" parent="1" source="ezMyJnMZ9ZcVQrx3dU-W-20" target="ezMyJnMZ9ZcVQrx3dU-W-18" edge="1">
          <mxGeometry relative="1" as="geometry" />
        </mxCell>
        <mxCell id="ezMyJnMZ9ZcVQrx3dU-W-20" value="Item" style="rounded=0;whiteSpace=wrap;html=1;" parent="1" vertex="1">
          <mxGeometry x="2335" y="580" width="100" height="40" as="geometry" />
        </mxCell>
        <mxCell id="ezMyJnMZ9ZcVQrx3dU-W-21" value="Código da venda" style="html=1;verticalAlign=middle;startArrow=oval;startFill=1;endArrow=none;startSize=8;rounded=0;endFill=0;spacingLeft=0;spacingRight=0;spacingBottom=0;spacing=0;spacingTop=0;labelPosition=left;verticalLabelPosition=middle;align=right;entryX=0.5;entryY=0;entryDx=0;entryDy=0;strokeColor=default;flowAnimation=0;shadow=0;jumpStyle=none;edgeStyle=orthogonalEdgeStyle;" parent="1" target="ezMyJnMZ9ZcVQrx3dU-W-9" edge="1">
          <mxGeometry x="-1" y="10" width="60" relative="1" as="geometry">
            <mxPoint x="1920" y="720" as="sourcePoint" />
            <mxPoint x="1935" y="700" as="targetPoint" />
            <mxPoint x="-10" y="9" as="offset" />
            <Array as="points">
              <mxPoint x="1960" y="720" />
              <mxPoint x="1960" y="720" />
            </Array>
          </mxGeometry>
        </mxCell>
        <mxCell id="ezMyJnMZ9ZcVQrx3dU-W-22" value="Data da Venda" style="html=1;verticalAlign=middle;startArrow=oval;startFill=0;endArrow=none;startSize=8;rounded=0;endFill=0;edgeStyle=orthogonalEdgeStyle;spacingLeft=0;spacingRight=0;spacingBottom=0;spacing=0;spacingTop=0;labelPosition=left;verticalLabelPosition=middle;align=right;" parent="1" edge="1">
          <mxGeometry x="-1" y="-10" width="60" relative="1" as="geometry">
            <mxPoint x="1920" y="650" as="sourcePoint" />
            <mxPoint x="1960" y="720" as="targetPoint" />
            <mxPoint x="-10" y="-10" as="offset" />
            <Array as="points">
              <mxPoint x="1960" y="650" />
            </Array>
          </mxGeometry>
        </mxCell>
        <mxCell id="ezMyJnMZ9ZcVQrx3dU-W-23" value="Preço" style="html=1;verticalAlign=middle;startArrow=oval;startFill=0;endArrow=none;startSize=8;rounded=0;endFill=0;edgeStyle=orthogonalEdgeStyle;spacingLeft=0;spacingRight=0;spacingBottom=0;spacing=0;spacingTop=0;labelPosition=left;verticalLabelPosition=middle;align=right;" parent="1" edge="1">
          <mxGeometry x="-1" y="-10" width="60" relative="1" as="geometry">
            <mxPoint x="1920" y="699.5799999999999" as="sourcePoint" />
            <mxPoint x="1960" y="699.5799999999999" as="targetPoint" />
            <mxPoint x="-10" y="-10" as="offset" />
          </mxGeometry>
        </mxCell>
        <mxCell id="ezMyJnMZ9ZcVQrx3dU-W-24" style="edgeStyle=orthogonalEdgeStyle;rounded=0;orthogonalLoop=1;jettySize=auto;html=1;fontFamily=Helvetica;fontSize=12;fontColor=default;endArrow=none;endFill=0;" parent="1" source="ezMyJnMZ9ZcVQrx3dU-W-26" edge="1">
          <mxGeometry relative="1" as="geometry">
            <mxPoint x="2230" y="740" as="targetPoint" />
          </mxGeometry>
        </mxCell>
        <mxCell id="ezMyJnMZ9ZcVQrx3dU-W-25" value="N" style="edgeLabel;html=1;align=center;verticalAlign=middle;resizable=0;points=[];rounded=0;strokeColor=default;spacingBottom=0;fontFamily=Helvetica;fontSize=12;fontColor=default;fillColor=none;" parent="ezMyJnMZ9ZcVQrx3dU-W-24" vertex="1" connectable="0">
          <mxGeometry x="0.1333" y="-1" relative="1" as="geometry">
            <mxPoint as="offset" />
          </mxGeometry>
        </mxCell>
        <mxCell id="ezMyJnMZ9ZcVQrx3dU-W-26" value="Possui" style="rhombus;whiteSpace=wrap;html=1;" parent="1" vertex="1">
          <mxGeometry x="2110" y="715" width="80" height="50" as="geometry" />
        </mxCell>
        <mxCell id="ezMyJnMZ9ZcVQrx3dU-W-27" style="edgeStyle=orthogonalEdgeStyle;rounded=0;orthogonalLoop=1;jettySize=auto;html=1;fontFamily=Helvetica;fontSize=12;fontColor=default;endArrow=none;endFill=0;exitX=1;exitY=0.5;exitDx=0;exitDy=0;" parent="1" source="ezMyJnMZ9ZcVQrx3dU-W-28" target="ezMyJnMZ9ZcVQrx3dU-W-34" edge="1">
          <mxGeometry relative="1" as="geometry">
            <mxPoint x="2020" y="890" as="targetPoint" />
          </mxGeometry>
        </mxCell>
        <mxCell id="ezMyJnMZ9ZcVQrx3dU-W-28" value="Reservar" style="rhombus;whiteSpace=wrap;html=1;" parent="1" vertex="1">
          <mxGeometry x="1980" y="800" width="80" height="50" as="geometry" />
        </mxCell>
        <mxCell id="ezMyJnMZ9ZcVQrx3dU-W-29" value="&lt;div style=&quot;&quot;&gt;Reserva&lt;/div&gt;" style="rounded=0;whiteSpace=wrap;fillColor=none;verticalAlign=top;labelPosition=center;verticalLabelPosition=bottom;align=right;spacingBottom=0;html=1;horizontal=1;fontFamily=Helvetica;spacing=0;spacingTop=-20;spacingRight=2;" parent="1" vertex="1">
          <mxGeometry x="1962.5" y="792.5" width="115" height="65" as="geometry" />
        </mxCell>
        <mxCell id="ezMyJnMZ9ZcVQrx3dU-W-30" value="Código" style="html=1;verticalAlign=middle;startArrow=oval;startFill=1;endArrow=none;startSize=8;rounded=0;endFill=0;edgeStyle=orthogonalEdgeStyle;spacingLeft=0;spacingRight=0;spacingBottom=0;spacing=0;spacingTop=0;labelPosition=left;verticalLabelPosition=middle;align=right;fontFamily=Helvetica;fontSize=12;fontColor=default;" parent="1" edge="1">
          <mxGeometry x="-1" y="-10" width="60" relative="1" as="geometry">
            <mxPoint x="1991" y="880" as="sourcePoint" />
            <mxPoint x="2040" y="880" as="targetPoint" />
            <mxPoint x="-10" y="-10" as="offset" />
          </mxGeometry>
        </mxCell>
        <mxCell id="ezMyJnMZ9ZcVQrx3dU-W-31" value="Horário" style="html=1;verticalAlign=middle;startArrow=oval;startFill=0;endArrow=none;startSize=8;rounded=0;endFill=0;edgeStyle=orthogonalEdgeStyle;spacingLeft=0;spacingRight=0;spacingBottom=0;spacing=0;spacingTop=0;labelPosition=left;verticalLabelPosition=middle;align=right;fontFamily=Helvetica;fontSize=12;fontColor=default;entryX=0.5;entryY=1;entryDx=0;entryDy=0;" parent="1" target="ezMyJnMZ9ZcVQrx3dU-W-29" edge="1">
          <mxGeometry x="-1" y="-10" width="60" relative="1" as="geometry">
            <mxPoint x="1990" y="900" as="sourcePoint" />
            <mxPoint x="2040" y="860" as="targetPoint" />
            <mxPoint x="-10" y="-10" as="offset" />
            <Array as="points">
              <mxPoint x="1990" y="900" />
              <mxPoint x="2040" y="900" />
              <mxPoint x="2040" y="857" />
            </Array>
          </mxGeometry>
        </mxCell>
        <mxCell id="ezMyJnMZ9ZcVQrx3dU-W-32" style="edgeStyle=orthogonalEdgeStyle;rounded=0;orthogonalLoop=1;jettySize=auto;html=1;entryX=0.5;entryY=1;entryDx=0;entryDy=0;exitX=1;exitY=0.5;exitDx=0;exitDy=0;endArrow=none;endFill=0;" parent="1" source="ezMyJnMZ9ZcVQrx3dU-W-34" target="ezMyJnMZ9ZcVQrx3dU-W-58" edge="1">
          <mxGeometry relative="1" as="geometry">
            <Array as="points">
              <mxPoint x="2160" y="1010" />
            </Array>
          </mxGeometry>
        </mxCell>
        <mxCell id="ezMyJnMZ9ZcVQrx3dU-W-33" value="1" style="edgeLabel;html=1;align=center;verticalAlign=middle;resizable=0;points=[];" parent="ezMyJnMZ9ZcVQrx3dU-W-32" vertex="1" connectable="0">
          <mxGeometry x="0.1951" y="-2" relative="1" as="geometry">
            <mxPoint as="offset" />
          </mxGeometry>
        </mxCell>
        <mxCell id="ezMyJnMZ9ZcVQrx3dU-W-34" value="Serviço" style="rounded=0;whiteSpace=wrap;html=1;" parent="1" vertex="1">
          <mxGeometry x="2050" y="990" width="100" height="40" as="geometry" />
        </mxCell>
        <mxCell id="ezMyJnMZ9ZcVQrx3dU-W-35" value="Código" style="html=1;verticalAlign=middle;startArrow=oval;startFill=1;endArrow=none;startSize=8;rounded=0;endFill=0;edgeStyle=orthogonalEdgeStyle;spacingLeft=0;spacingRight=0;spacingBottom=0;spacing=0;spacingTop=0;labelPosition=left;verticalLabelPosition=middle;align=right;" parent="1" edge="1">
          <mxGeometry x="-1" y="-10" width="60" relative="1" as="geometry">
            <mxPoint x="2335" y="559.58" as="sourcePoint" />
            <mxPoint x="2385" y="560" as="targetPoint" />
            <mxPoint x="-10" y="-10" as="offset" />
          </mxGeometry>
        </mxCell>
        <mxCell id="ezMyJnMZ9ZcVQrx3dU-W-36" value="Nome" style="html=1;verticalAlign=middle;startArrow=oval;startFill=0;endArrow=none;startSize=8;rounded=0;endFill=0;edgeStyle=orthogonalEdgeStyle;spacingLeft=0;spacingRight=0;spacingBottom=0;spacing=0;spacingTop=0;labelPosition=left;verticalLabelPosition=middle;align=right;" parent="1" edge="1">
          <mxGeometry x="-1" y="-10" width="60" relative="1" as="geometry">
            <mxPoint x="2335" y="539.58" as="sourcePoint" />
            <mxPoint x="2385" y="540" as="targetPoint" />
            <mxPoint x="-10" y="-10" as="offset" />
          </mxGeometry>
        </mxCell>
        <mxCell id="ezMyJnMZ9ZcVQrx3dU-W-37" value="Descrição" style="html=1;verticalAlign=middle;startArrow=oval;startFill=0;endArrow=none;startSize=8;rounded=0;endFill=0;edgeStyle=orthogonalEdgeStyle;spacingLeft=0;spacingRight=0;spacingBottom=0;spacing=0;spacingTop=0;labelPosition=left;verticalLabelPosition=middle;align=right;" parent="1" edge="1">
          <mxGeometry x="-1" y="-10" width="60" relative="1" as="geometry">
            <mxPoint x="2335" y="520" as="sourcePoint" />
            <mxPoint x="2385" y="520" as="targetPoint" />
            <mxPoint x="-10" y="-10" as="offset" />
          </mxGeometry>
        </mxCell>
        <mxCell id="ezMyJnMZ9ZcVQrx3dU-W-38" value="Código de Barras" style="html=1;verticalAlign=middle;startArrow=oval;startFill=1;endArrow=none;startSize=8;rounded=0;endFill=0;edgeStyle=orthogonalEdgeStyle;spacingLeft=0;spacingRight=0;spacingBottom=0;spacing=0;spacingTop=0;labelPosition=left;verticalLabelPosition=middle;align=right;" parent="1" edge="1">
          <mxGeometry x="-1" y="-10" width="60" relative="1" as="geometry">
            <mxPoint x="2220" y="782.5" as="sourcePoint" />
            <mxPoint x="2260" y="782.5" as="targetPoint" />
            <mxPoint x="-10" y="-10" as="offset" />
          </mxGeometry>
        </mxCell>
        <mxCell id="ezMyJnMZ9ZcVQrx3dU-W-39" value="Preço de Custo" style="html=1;verticalAlign=middle;startArrow=oval;startFill=0;endArrow=none;startSize=8;rounded=0;endFill=0;edgeStyle=orthogonalEdgeStyle;spacingLeft=0;spacingRight=0;spacingBottom=0;spacing=0;spacingTop=0;labelPosition=left;verticalLabelPosition=middle;align=right;" parent="1" edge="1">
          <mxGeometry x="-1" y="-10" width="60" relative="1" as="geometry">
            <mxPoint x="2220" y="797.5" as="sourcePoint" />
            <mxPoint x="2260" y="797.5" as="targetPoint" />
            <mxPoint x="-10" y="-10" as="offset" />
          </mxGeometry>
        </mxCell>
        <mxCell id="ezMyJnMZ9ZcVQrx3dU-W-40" value="Qnt em Estoque" style="html=1;verticalAlign=middle;startArrow=oval;startFill=0;endArrow=none;startSize=8;rounded=0;endFill=0;edgeStyle=orthogonalEdgeStyle;spacingLeft=0;spacingRight=0;spacingBottom=0;spacing=0;spacingTop=0;labelPosition=left;verticalLabelPosition=middle;align=right;" parent="1" edge="1">
          <mxGeometry x="-1" y="-10" width="60" relative="1" as="geometry">
            <mxPoint x="2330" y="500" as="sourcePoint" />
            <mxPoint x="2385" y="500.00000000000006" as="targetPoint" />
            <mxPoint x="-10" y="-10" as="offset" />
          </mxGeometry>
        </mxCell>
        <mxCell id="ezMyJnMZ9ZcVQrx3dU-W-41" value="Data de Frabricação" style="html=1;verticalAlign=middle;startArrow=oval;startFill=0;endArrow=none;startSize=8;rounded=0;endFill=0;edgeStyle=orthogonalEdgeStyle;spacingLeft=0;spacingRight=0;spacingBottom=0;spacing=0;spacingTop=0;labelPosition=left;verticalLabelPosition=middle;align=right;" parent="1" edge="1">
          <mxGeometry x="-1" y="-10" width="60" relative="1" as="geometry">
            <mxPoint x="2220" y="810" as="sourcePoint" />
            <mxPoint x="2260" y="810" as="targetPoint" />
            <mxPoint x="-10" y="-10" as="offset" />
            <Array as="points">
              <mxPoint x="2260" y="810" />
            </Array>
          </mxGeometry>
        </mxCell>
        <mxCell id="ezMyJnMZ9ZcVQrx3dU-W-42" value="Cliente" style="rounded=0;whiteSpace=wrap;html=1;" parent="1" vertex="1">
          <mxGeometry x="1660" y="987.43" width="100" height="40" as="geometry" />
        </mxCell>
        <mxCell id="ezMyJnMZ9ZcVQrx3dU-W-43" style="edgeStyle=orthogonalEdgeStyle;rounded=0;orthogonalLoop=1;jettySize=auto;html=1;exitX=0.5;exitY=0;exitDx=0;exitDy=0;endArrow=none;endFill=0;" parent="1" source="ezMyJnMZ9ZcVQrx3dU-W-46" edge="1">
          <mxGeometry relative="1" as="geometry">
            <mxPoint x="2480.9999999999995" y="720.0000000000001" as="sourcePoint" />
            <mxPoint x="2385.9999999999995" y="665" as="targetPoint" />
            <Array as="points">
              <mxPoint x="2465" y="690" />
              <mxPoint x="2386" y="690" />
            </Array>
          </mxGeometry>
        </mxCell>
        <mxCell id="ezMyJnMZ9ZcVQrx3dU-W-44" style="edgeStyle=orthogonalEdgeStyle;rounded=0;orthogonalLoop=1;jettySize=auto;html=1;entryX=0.5;entryY=0;entryDx=0;entryDy=0;endArrow=none;endFill=0;" parent="1" source="ezMyJnMZ9ZcVQrx3dU-W-46" target="ezMyJnMZ9ZcVQrx3dU-W-76" edge="1">
          <mxGeometry relative="1" as="geometry">
            <Array as="points">
              <mxPoint x="2465" y="780" />
              <mxPoint x="2465" y="780" />
            </Array>
          </mxGeometry>
        </mxCell>
        <mxCell id="ezMyJnMZ9ZcVQrx3dU-W-45" value="N" style="edgeLabel;html=1;align=center;verticalAlign=middle;resizable=0;points=[];" parent="ezMyJnMZ9ZcVQrx3dU-W-44" vertex="1" connectable="0">
          <mxGeometry x="0.4044" y="3" relative="1" as="geometry">
            <mxPoint as="offset" />
          </mxGeometry>
        </mxCell>
        <mxCell id="ezMyJnMZ9ZcVQrx3dU-W-46" value="Materia Prima" style="rounded=0;whiteSpace=wrap;html=1;" parent="1" vertex="1">
          <mxGeometry x="2415" y="720" width="100" height="40" as="geometry" />
        </mxCell>
        <mxCell id="ezMyJnMZ9ZcVQrx3dU-W-47" style="edgeStyle=orthogonalEdgeStyle;rounded=0;orthogonalLoop=1;jettySize=auto;html=1;entryX=0.5;entryY=0;entryDx=0;entryDy=0;exitX=0;exitY=0.5;exitDx=0;exitDy=0;endArrow=none;endFill=0;" parent="1" source="ezMyJnMZ9ZcVQrx3dU-W-49" target="ezMyJnMZ9ZcVQrx3dU-W-42" edge="1">
          <mxGeometry relative="1" as="geometry">
            <Array as="points">
              <mxPoint x="1795" y="975" />
              <mxPoint x="1710" y="975" />
            </Array>
          </mxGeometry>
        </mxCell>
        <mxCell id="ezMyJnMZ9ZcVQrx3dU-W-48" style="edgeStyle=orthogonalEdgeStyle;rounded=0;orthogonalLoop=1;jettySize=auto;html=1;exitX=0;exitY=0.5;exitDx=0;exitDy=0;endArrow=none;endFill=0;" parent="1" source="ezMyJnMZ9ZcVQrx3dU-W-49" target="ezMyJnMZ9ZcVQrx3dU-W-52" edge="1">
          <mxGeometry relative="1" as="geometry">
            <Array as="points">
              <mxPoint x="1795" y="975" />
              <mxPoint x="1870" y="975" />
            </Array>
          </mxGeometry>
        </mxCell>
        <mxCell id="ezMyJnMZ9ZcVQrx3dU-W-49" value="" style="triangle;whiteSpace=wrap;html=1;rotation=-90;" parent="1" vertex="1">
          <mxGeometry x="1780" y="917.5" width="30" height="40" as="geometry" />
        </mxCell>
        <mxCell id="ezMyJnMZ9ZcVQrx3dU-W-50" style="edgeStyle=orthogonalEdgeStyle;rounded=0;orthogonalLoop=1;jettySize=auto;html=1;entryX=0.5;entryY=1;entryDx=0;entryDy=0;endArrow=none;endFill=0;" parent="1" source="ezMyJnMZ9ZcVQrx3dU-W-52" target="ezMyJnMZ9ZcVQrx3dU-W-68" edge="1">
          <mxGeometry relative="1" as="geometry">
            <Array as="points">
              <mxPoint x="1900" y="970" />
              <mxPoint x="1900" y="970" />
            </Array>
          </mxGeometry>
        </mxCell>
        <mxCell id="ezMyJnMZ9ZcVQrx3dU-W-51" value="N" style="edgeLabel;html=1;align=center;verticalAlign=middle;resizable=0;points=[];" parent="ezMyJnMZ9ZcVQrx3dU-W-50" vertex="1" connectable="0">
          <mxGeometry x="-0.1023" y="-2" relative="1" as="geometry">
            <mxPoint x="-2" y="-1" as="offset" />
          </mxGeometry>
        </mxCell>
        <mxCell id="ezMyJnMZ9ZcVQrx3dU-W-52" value="Colaborador" style="rounded=0;whiteSpace=wrap;html=1;" parent="1" vertex="1">
          <mxGeometry x="1820" y="990.0000000000001" width="100" height="40" as="geometry" />
        </mxCell>
        <mxCell id="ezMyJnMZ9ZcVQrx3dU-W-53" style="edgeStyle=orthogonalEdgeStyle;rounded=0;orthogonalLoop=1;jettySize=auto;html=1;endArrow=none;endFill=0;" parent="1" source="ezMyJnMZ9ZcVQrx3dU-W-55" target="ezMyJnMZ9ZcVQrx3dU-W-46" edge="1">
          <mxGeometry relative="1" as="geometry">
            <Array as="points">
              <mxPoint x="2450" y="810" />
            </Array>
          </mxGeometry>
        </mxCell>
        <mxCell id="ezMyJnMZ9ZcVQrx3dU-W-54" value="N" style="edgeLabel;html=1;align=center;verticalAlign=middle;resizable=0;points=[];" parent="ezMyJnMZ9ZcVQrx3dU-W-53" vertex="1" connectable="0">
          <mxGeometry x="0.4843" y="-1" relative="1" as="geometry">
            <mxPoint as="offset" />
          </mxGeometry>
        </mxCell>
        <mxCell id="ezMyJnMZ9ZcVQrx3dU-W-55" value="Composto" style="rhombus;whiteSpace=wrap;html=1;" parent="1" vertex="1">
          <mxGeometry x="2345" y="785" width="80" height="50" as="geometry" />
        </mxCell>
        <mxCell id="ezMyJnMZ9ZcVQrx3dU-W-56" style="edgeStyle=orthogonalEdgeStyle;rounded=0;orthogonalLoop=1;jettySize=auto;html=1;endArrow=none;endFill=0;" parent="1" source="ezMyJnMZ9ZcVQrx3dU-W-58" target="ezMyJnMZ9ZcVQrx3dU-W-15" edge="1">
          <mxGeometry relative="1" as="geometry" />
        </mxCell>
        <mxCell id="ezMyJnMZ9ZcVQrx3dU-W-57" value="M" style="edgeLabel;html=1;align=center;verticalAlign=middle;resizable=0;points=[];" parent="ezMyJnMZ9ZcVQrx3dU-W-56" vertex="1" connectable="0">
          <mxGeometry x="0.0391" relative="1" as="geometry">
            <mxPoint as="offset" />
          </mxGeometry>
        </mxCell>
        <mxCell id="ezMyJnMZ9ZcVQrx3dU-W-58" value="Produz" style="rhombus;whiteSpace=wrap;html=1;" parent="1" vertex="1">
          <mxGeometry x="2120" y="845" width="80" height="50" as="geometry" />
        </mxCell>
        <mxCell id="ezMyJnMZ9ZcVQrx3dU-W-59" style="edgeStyle=orthogonalEdgeStyle;rounded=0;orthogonalLoop=1;jettySize=auto;html=1;shape=link;" parent="1" source="ezMyJnMZ9ZcVQrx3dU-W-60" target="ezMyJnMZ9ZcVQrx3dU-W-49" edge="1">
          <mxGeometry relative="1" as="geometry" />
        </mxCell>
        <mxCell id="ezMyJnMZ9ZcVQrx3dU-W-60" value="Pessoa" style="rounded=0;whiteSpace=wrap;html=1;" parent="1" vertex="1">
          <mxGeometry x="1745" y="857.5" width="100" height="40" as="geometry" />
        </mxCell>
        <mxCell id="ezMyJnMZ9ZcVQrx3dU-W-61" value="CPF" style="html=1;verticalAlign=middle;startArrow=oval;startFill=1;endArrow=none;startSize=8;rounded=0;endFill=0;edgeStyle=orthogonalEdgeStyle;spacingLeft=0;spacingRight=0;spacingBottom=0;spacing=0;spacingTop=0;labelPosition=left;verticalLabelPosition=middle;align=right;" parent="1" edge="1">
          <mxGeometry x="-1" y="-10" width="60" relative="1" as="geometry">
            <mxPoint x="1770" y="850" as="sourcePoint" />
            <mxPoint x="1810" y="850" as="targetPoint" />
            <mxPoint x="-10" y="-10" as="offset" />
          </mxGeometry>
        </mxCell>
        <mxCell id="ezMyJnMZ9ZcVQrx3dU-W-62" value="Nome" style="html=1;verticalAlign=middle;startArrow=oval;startFill=0;endArrow=none;startSize=8;rounded=0;endFill=0;edgeStyle=orthogonalEdgeStyle;spacingLeft=0;spacingRight=0;spacingBottom=0;spacing=0;spacingTop=0;labelPosition=left;verticalLabelPosition=middle;align=right;" parent="1" edge="1">
          <mxGeometry x="-1" y="-10" width="60" relative="1" as="geometry">
            <mxPoint x="1770" y="835" as="sourcePoint" />
            <mxPoint x="1810" y="835" as="targetPoint" />
            <mxPoint x="-10" y="-10" as="offset" />
          </mxGeometry>
        </mxCell>
        <mxCell id="ezMyJnMZ9ZcVQrx3dU-W-63" value="Endereço" style="html=1;verticalAlign=middle;startArrow=oval;startFill=0;endArrow=none;startSize=8;rounded=0;endFill=0;edgeStyle=orthogonalEdgeStyle;spacingLeft=0;spacingRight=0;spacingBottom=0;spacing=0;spacingTop=0;labelPosition=left;verticalLabelPosition=middle;align=right;entryX=0.66;entryY=0;entryDx=0;entryDy=0;entryPerimeter=0;" parent="1" target="ezMyJnMZ9ZcVQrx3dU-W-60" edge="1">
          <mxGeometry x="-1" y="-10" width="60" relative="1" as="geometry">
            <mxPoint x="1775" y="820" as="sourcePoint" />
            <mxPoint x="1810" y="850" as="targetPoint" />
            <mxPoint x="-10" y="-10" as="offset" />
            <Array as="points">
              <mxPoint x="1811" y="820" />
            </Array>
          </mxGeometry>
        </mxCell>
        <mxCell id="ezMyJnMZ9ZcVQrx3dU-W-64" value="Código" style="html=1;verticalAlign=middle;startArrow=oval;startFill=1;endArrow=none;startSize=8;rounded=0;endFill=0;edgeStyle=orthogonalEdgeStyle;spacingLeft=0;spacingRight=0;spacingBottom=0;spacing=0;spacingTop=0;labelPosition=left;verticalLabelPosition=middle;align=right;" parent="1" edge="1">
          <mxGeometry x="-1" y="-10" width="60" relative="1" as="geometry">
            <mxPoint x="1830" y="1040" as="sourcePoint" />
            <mxPoint x="1870" y="1040" as="targetPoint" />
            <mxPoint x="-10" y="-10" as="offset" />
          </mxGeometry>
        </mxCell>
        <mxCell id="ezMyJnMZ9ZcVQrx3dU-W-65" value="Sálario" style="html=1;verticalAlign=middle;startArrow=oval;startFill=0;endArrow=none;startSize=8;rounded=0;endFill=0;edgeStyle=orthogonalEdgeStyle;spacingLeft=0;spacingRight=0;spacingBottom=0;spacing=0;spacingTop=0;labelPosition=left;verticalLabelPosition=middle;align=right;" parent="1" edge="1">
          <mxGeometry x="-1" y="-10" width="60" relative="1" as="geometry">
            <mxPoint x="1830" y="1060" as="sourcePoint" />
            <mxPoint x="1870" y="1060" as="targetPoint" />
            <mxPoint x="-10" y="-10" as="offset" />
          </mxGeometry>
        </mxCell>
        <mxCell id="ezMyJnMZ9ZcVQrx3dU-W-66" value="Qnt de Serviços" style="html=1;verticalAlign=middle;startArrow=oval;startFill=0;endArrow=none;startSize=8;rounded=0;endFill=0;edgeStyle=orthogonalEdgeStyle;spacingLeft=0;spacingRight=0;spacingBottom=0;spacing=0;spacingTop=0;labelPosition=left;verticalLabelPosition=middle;align=right;entryX=0.5;entryY=1;entryDx=0;entryDy=0;" parent="1" target="ezMyJnMZ9ZcVQrx3dU-W-52" edge="1">
          <mxGeometry x="-1" y="-10" width="60" relative="1" as="geometry">
            <mxPoint x="1830" y="1080" as="sourcePoint" />
            <mxPoint x="1870" y="1080" as="targetPoint" />
            <mxPoint x="-10" y="-10" as="offset" />
            <Array as="points">
              <mxPoint x="1870" y="1080" />
            </Array>
          </mxGeometry>
        </mxCell>
        <mxCell id="ezMyJnMZ9ZcVQrx3dU-W-67" value="M" style="edgeStyle=orthogonalEdgeStyle;rounded=0;orthogonalLoop=1;jettySize=auto;html=1;endArrow=none;endFill=0;" parent="1" source="ezMyJnMZ9ZcVQrx3dU-W-68" edge="1">
          <mxGeometry x="0.1996" relative="1" as="geometry">
            <mxPoint x="1960" y="820" as="targetPoint" />
            <Array as="points">
              <mxPoint x="1900" y="820" />
            </Array>
            <mxPoint as="offset" />
          </mxGeometry>
        </mxCell>
        <mxCell id="ezMyJnMZ9ZcVQrx3dU-W-68" value="Trabalha" style="rhombus;whiteSpace=wrap;html=1;" parent="1" vertex="1">
          <mxGeometry x="1860" y="852.5000000000001" width="80" height="50" as="geometry" />
        </mxCell>
        <mxCell id="ezMyJnMZ9ZcVQrx3dU-W-69" style="edgeStyle=orthogonalEdgeStyle;rounded=0;orthogonalLoop=1;jettySize=auto;html=1;exitX=0;exitY=0.5;exitDx=0;exitDy=0;" parent="1" source="ezMyJnMZ9ZcVQrx3dU-W-18" target="ezMyJnMZ9ZcVQrx3dU-W-18" edge="1">
          <mxGeometry relative="1" as="geometry" />
        </mxCell>
        <mxCell id="ezMyJnMZ9ZcVQrx3dU-W-70" value="Estoque" style="rounded=0;whiteSpace=wrap;html=1;" parent="1" vertex="1">
          <mxGeometry x="2345" y="980" width="100" height="40" as="geometry" />
        </mxCell>
        <mxCell id="ezMyJnMZ9ZcVQrx3dU-W-71" style="edgeStyle=orthogonalEdgeStyle;rounded=0;orthogonalLoop=1;jettySize=auto;html=1;entryX=0.5;entryY=0;entryDx=0;entryDy=0;endArrow=none;endFill=0;" parent="1" source="ezMyJnMZ9ZcVQrx3dU-W-73" target="ezMyJnMZ9ZcVQrx3dU-W-70" edge="1">
          <mxGeometry relative="1" as="geometry" />
        </mxCell>
        <mxCell id="ezMyJnMZ9ZcVQrx3dU-W-72" value="M" style="edgeLabel;html=1;align=center;verticalAlign=middle;resizable=0;points=[];" parent="ezMyJnMZ9ZcVQrx3dU-W-71" vertex="1" connectable="0">
          <mxGeometry x="-0.0708" y="-3" relative="1" as="geometry">
            <mxPoint as="offset" />
          </mxGeometry>
        </mxCell>
        <mxCell id="ezMyJnMZ9ZcVQrx3dU-W-73" value="Armazena" style="rhombus;whiteSpace=wrap;html=1;" parent="1" vertex="1">
          <mxGeometry x="2290" y="867.5" width="80" height="50" as="geometry" />
        </mxCell>
        <mxCell id="ezMyJnMZ9ZcVQrx3dU-W-74" style="edgeStyle=orthogonalEdgeStyle;rounded=0;orthogonalLoop=1;jettySize=auto;html=1;entryX=0.5;entryY=0;entryDx=0;entryDy=0;endArrow=none;endFill=0;" parent="1" source="ezMyJnMZ9ZcVQrx3dU-W-76" target="ezMyJnMZ9ZcVQrx3dU-W-70" edge="1">
          <mxGeometry relative="1" as="geometry" />
        </mxCell>
        <mxCell id="ezMyJnMZ9ZcVQrx3dU-W-75" value="M" style="edgeLabel;html=1;align=center;verticalAlign=middle;resizable=0;points=[];" parent="ezMyJnMZ9ZcVQrx3dU-W-74" vertex="1" connectable="0">
          <mxGeometry x="-0.0204" y="-1" relative="1" as="geometry">
            <mxPoint as="offset" />
          </mxGeometry>
        </mxCell>
        <mxCell id="ezMyJnMZ9ZcVQrx3dU-W-76" value="Armazena" style="rhombus;whiteSpace=wrap;html=1;" parent="1" vertex="1">
          <mxGeometry x="2425" y="867.5" width="80" height="50" as="geometry" />
        </mxCell>
        <mxCell id="ezMyJnMZ9ZcVQrx3dU-W-77" value="Endereço" style="html=1;verticalAlign=middle;startArrow=oval;startFill=0;endArrow=none;startSize=8;rounded=0;endFill=0;edgeStyle=orthogonalEdgeStyle;spacingLeft=0;spacingRight=0;spacingBottom=0;spacing=0;spacingTop=0;labelPosition=left;verticalLabelPosition=middle;align=right;" parent="1" edge="1">
          <mxGeometry x="-1" y="-10" width="60" relative="1" as="geometry">
            <mxPoint x="2350" y="1070" as="sourcePoint" />
            <mxPoint x="2390" y="1020" as="targetPoint" />
            <mxPoint x="-10" y="-10" as="offset" />
            <Array as="points">
              <mxPoint x="2390" y="1070" />
              <mxPoint x="2390" y="1020" />
            </Array>
          </mxGeometry>
        </mxCell>
        <mxCell id="ezMyJnMZ9ZcVQrx3dU-W-78" value="Código" style="html=1;verticalAlign=middle;startArrow=oval;startFill=1;endArrow=none;startSize=8;rounded=0;endFill=0;edgeStyle=orthogonalEdgeStyle;spacingLeft=0;spacingRight=0;spacingBottom=0;spacing=0;spacingTop=0;labelPosition=left;verticalLabelPosition=middle;align=right;" parent="1" edge="1">
          <mxGeometry x="-1" y="-10" width="60" relative="1" as="geometry">
            <mxPoint x="2350" y="1035" as="sourcePoint" />
            <mxPoint x="2390" y="1035" as="targetPoint" />
            <mxPoint x="-10" y="-10" as="offset" />
          </mxGeometry>
        </mxCell>
        <mxCell id="ezMyJnMZ9ZcVQrx3dU-W-79" value="Tamanho (M²)" style="html=1;verticalAlign=middle;startArrow=oval;startFill=0;endArrow=none;startSize=8;rounded=0;endFill=0;edgeStyle=orthogonalEdgeStyle;spacingLeft=0;spacingRight=0;spacingBottom=0;spacing=0;spacingTop=0;labelPosition=left;verticalLabelPosition=middle;align=right;" parent="1" edge="1">
          <mxGeometry x="-1" y="-10" width="60" relative="1" as="geometry">
            <mxPoint x="2350" y="1050" as="sourcePoint" />
            <mxPoint x="2390" y="1050" as="targetPoint" />
            <mxPoint x="-10" y="-10" as="offset" />
          </mxGeometry>
        </mxCell>
        <mxCell id="ezMyJnMZ9ZcVQrx3dU-W-80" value="Planejar" style="rhombus;whiteSpace=wrap;html=1;" parent="1" vertex="1">
          <mxGeometry x="2110" y="630" width="80" height="50" as="geometry" />
        </mxCell>
        <mxCell id="ezMyJnMZ9ZcVQrx3dU-W-81" style="edgeStyle=orthogonalEdgeStyle;rounded=0;orthogonalLoop=1;jettySize=auto;html=1;endArrow=none;endFill=0;entryX=0.5;entryY=0;entryDx=0;entryDy=0;" parent="1" source="ezMyJnMZ9ZcVQrx3dU-W-80" target="ezMyJnMZ9ZcVQrx3dU-W-15" edge="1">
          <mxGeometry relative="1" as="geometry">
            <mxPoint x="2274" y="720" as="targetPoint" />
            <Array as="points">
              <mxPoint x="2270" y="655" />
              <mxPoint x="2270" y="718" />
            </Array>
          </mxGeometry>
        </mxCell>
        <mxCell id="ezMyJnMZ9ZcVQrx3dU-W-82" value="N" style="edgeLabel;html=1;align=center;verticalAlign=middle;resizable=0;points=[];" parent="ezMyJnMZ9ZcVQrx3dU-W-81" vertex="1" connectable="0">
          <mxGeometry x="0.3446" y="2" relative="1" as="geometry">
            <mxPoint x="-2" y="-7" as="offset" />
          </mxGeometry>
        </mxCell>
        <mxCell id="ezMyJnMZ9ZcVQrx3dU-W-83" style="edgeStyle=orthogonalEdgeStyle;rounded=0;orthogonalLoop=1;jettySize=auto;html=1;endArrow=none;endFill=0;" parent="1" target="ezMyJnMZ9ZcVQrx3dU-W-80" edge="1">
          <mxGeometry relative="1" as="geometry">
            <mxPoint x="2020" y="720" as="sourcePoint" />
            <Array as="points">
              <mxPoint x="2020" y="655" />
            </Array>
          </mxGeometry>
        </mxCell>
        <mxCell id="ezMyJnMZ9ZcVQrx3dU-W-84" value="1" style="edgeLabel;html=1;align=center;verticalAlign=middle;resizable=0;points=[];" parent="ezMyJnMZ9ZcVQrx3dU-W-83" vertex="1" connectable="0">
          <mxGeometry x="0.4583" y="2" relative="1" as="geometry">
            <mxPoint x="-18" y="2" as="offset" />
          </mxGeometry>
        </mxCell>
        <mxCell id="ezMyJnMZ9ZcVQrx3dU-W-85" style="edgeStyle=orthogonalEdgeStyle;rounded=0;orthogonalLoop=1;jettySize=auto;html=1;endArrow=none;endFill=0;" parent="1" source="ezMyJnMZ9ZcVQrx3dU-W-86" target="ezMyJnMZ9ZcVQrx3dU-W-46" edge="1">
          <mxGeometry relative="1" as="geometry" />
        </mxCell>
        <mxCell id="ezMyJnMZ9ZcVQrx3dU-W-86" value="Fornece" style="rhombus;whiteSpace=wrap;html=1;" parent="1" vertex="1">
          <mxGeometry x="2560" y="715" width="80" height="50" as="geometry" />
        </mxCell>
        <mxCell id="ezMyJnMZ9ZcVQrx3dU-W-87" style="edgeStyle=orthogonalEdgeStyle;rounded=0;orthogonalLoop=1;jettySize=auto;html=1;entryX=0.5;entryY=1;entryDx=0;entryDy=0;endArrow=none;endFill=0;" parent="1" source="ezMyJnMZ9ZcVQrx3dU-W-88" target="ezMyJnMZ9ZcVQrx3dU-W-86" edge="1">
          <mxGeometry relative="1" as="geometry" />
        </mxCell>
        <mxCell id="ezMyJnMZ9ZcVQrx3dU-W-88" value="Fornecedor" style="rounded=0;whiteSpace=wrap;html=1;" parent="1" vertex="1">
          <mxGeometry x="2550" y="820" width="100" height="40" as="geometry" />
        </mxCell>
        <mxCell id="ezMyJnMZ9ZcVQrx3dU-W-89" value="CNPJ" style="html=1;verticalAlign=middle;startArrow=oval;startFill=1;endArrow=none;startSize=8;rounded=0;endFill=0;edgeStyle=orthogonalEdgeStyle;spacingLeft=0;spacingRight=0;spacingBottom=0;spacing=0;spacingTop=0;labelPosition=left;verticalLabelPosition=middle;align=right;" parent="1" edge="1">
          <mxGeometry x="-1" y="-10" width="60" relative="1" as="geometry">
            <mxPoint x="2570" y="884.13" as="sourcePoint" />
            <mxPoint x="2610" y="884.13" as="targetPoint" />
            <mxPoint x="-10" y="-10" as="offset" />
          </mxGeometry>
        </mxCell>
        <mxCell id="ezMyJnMZ9ZcVQrx3dU-W-90" value="Endereço" style="html=1;verticalAlign=middle;startArrow=oval;startFill=0;endArrow=none;startSize=8;rounded=0;endFill=0;edgeStyle=orthogonalEdgeStyle;spacingLeft=0;spacingRight=0;spacingBottom=0;spacing=0;spacingTop=0;labelPosition=left;verticalLabelPosition=middle;align=right;" parent="1" edge="1">
          <mxGeometry x="-1" y="-10" width="60" relative="1" as="geometry">
            <mxPoint x="2570" y="900" as="sourcePoint" />
            <mxPoint x="2610" y="900" as="targetPoint" />
            <mxPoint x="-10" y="-10" as="offset" />
          </mxGeometry>
        </mxCell>
        <mxCell id="ezMyJnMZ9ZcVQrx3dU-W-91" value="Nome" style="html=1;verticalAlign=middle;startArrow=oval;startFill=0;endArrow=none;startSize=8;rounded=0;endFill=0;edgeStyle=orthogonalEdgeStyle;spacingLeft=0;spacingRight=0;spacingBottom=0;spacing=0;spacingTop=0;labelPosition=left;verticalLabelPosition=middle;align=right;" parent="1" edge="1">
          <mxGeometry x="-1" y="-10" width="60" relative="1" as="geometry">
            <mxPoint x="2570" y="918.44" as="sourcePoint" />
            <mxPoint x="2610" y="860" as="targetPoint" />
            <mxPoint x="-10" y="-10" as="offset" />
            <Array as="points">
              <mxPoint x="2610" y="918" />
              <mxPoint x="2610" y="860" />
            </Array>
          </mxGeometry>
        </mxCell>
        <mxCell id="ezMyJnMZ9ZcVQrx3dU-W-92" value="Método de Pagamento" style="html=1;verticalAlign=middle;startArrow=oval;startFill=0;endArrow=none;startSize=8;rounded=0;endFill=0;edgeStyle=orthogonalEdgeStyle;spacingLeft=0;spacingRight=0;spacingBottom=0;spacing=0;spacingTop=0;labelPosition=left;verticalLabelPosition=middle;align=right;" parent="1" edge="1">
          <mxGeometry x="-1" y="-10" width="60" relative="1" as="geometry">
            <mxPoint x="1920" y="669.9999999999999" as="sourcePoint" />
            <mxPoint x="1960" y="669.9999999999999" as="targetPoint" />
            <mxPoint x="-10" y="-10" as="offset" />
          </mxGeometry>
        </mxCell>
        <mxCell id="ezMyJnMZ9ZcVQrx3dU-W-93" style="edgeStyle=orthogonalEdgeStyle;rounded=0;orthogonalLoop=1;jettySize=auto;html=1;endArrow=none;endFill=0;" parent="1" source="ezMyJnMZ9ZcVQrx3dU-W-95" target="ezMyJnMZ9ZcVQrx3dU-W-34" edge="1">
          <mxGeometry relative="1" as="geometry" />
        </mxCell>
        <mxCell id="ezMyJnMZ9ZcVQrx3dU-W-94" value="M" style="edgeLabel;html=1;align=center;verticalAlign=middle;resizable=0;points=[];" parent="ezMyJnMZ9ZcVQrx3dU-W-93" vertex="1" connectable="0">
          <mxGeometry x="0.6463" y="1" relative="1" as="geometry">
            <mxPoint x="-1" y="1" as="offset" />
          </mxGeometry>
        </mxCell>
        <mxCell id="ezMyJnMZ9ZcVQrx3dU-W-95" value="Fazer" style="rhombus;whiteSpace=wrap;html=1;" parent="1" vertex="1">
          <mxGeometry x="1940" y="985.0000000000001" width="80" height="50" as="geometry" />
        </mxCell>
        <mxCell id="ezMyJnMZ9ZcVQrx3dU-W-96" style="edgeStyle=orthogonalEdgeStyle;rounded=0;orthogonalLoop=1;jettySize=auto;html=1;entryX=0;entryY=0.5;entryDx=0;entryDy=0;endArrow=none;endFill=0;" parent="1" source="ezMyJnMZ9ZcVQrx3dU-W-52" target="ezMyJnMZ9ZcVQrx3dU-W-95" edge="1">
          <mxGeometry relative="1" as="geometry" />
        </mxCell>
        <mxCell id="ezMyJnMZ9ZcVQrx3dU-W-97" value="N" style="edgeLabel;html=1;align=center;verticalAlign=middle;resizable=0;points=[];" parent="ezMyJnMZ9ZcVQrx3dU-W-96" vertex="1" connectable="0">
          <mxGeometry x="-0.0713" y="1" relative="1" as="geometry">
            <mxPoint x="-2" y="-1" as="offset" />
          </mxGeometry>
        </mxCell>
        <mxCell id="ezMyJnMZ9ZcVQrx3dU-W-98" value="Duração" style="html=1;verticalAlign=middle;startArrow=oval;startFill=0;endArrow=none;startSize=8;rounded=0;endFill=0;edgeStyle=orthogonalEdgeStyle;spacingLeft=0;spacingRight=0;spacingBottom=0;spacing=0;spacingTop=0;labelPosition=left;verticalLabelPosition=middle;align=right;" parent="1" edge="1">
          <mxGeometry x="-1" y="-10" width="60" relative="1" as="geometry">
            <mxPoint x="2060" y="1050" as="sourcePoint" />
            <mxPoint x="2100" y="1050" as="targetPoint" />
            <mxPoint x="-10" y="-10" as="offset" />
          </mxGeometry>
        </mxCell>
      </root>
    </mxGraphModel>
  </diagram>
</mxfile>
